<?xml version="1.0" encoding="UTF-8" standalone="no"?>
<!-- Created with Inkscape (http://www.inkscape.org/) -->

<svg
   xmlns:dc="http://purl.org/dc/elements/1.1/"
   xmlns:cc="http://creativecommons.org/ns#"
   xmlns:rdf="http://www.w3.org/1999/02/22-rdf-syntax-ns#"
   xmlns:svg="http://www.w3.org/2000/svg"
   xmlns="http://www.w3.org/2000/svg"
   xmlns:sodipodi="http://sodipodi.sourceforge.net/DTD/sodipodi-0.dtd"
   xmlns:inkscape="http://www.inkscape.org/namespaces/inkscape"
   width="334.69067"
   height="51.573334"
   viewBox="0 0 88.553575 13.645445"
   version="1.1"
   id="svg8"
   inkscape:version="0.92.4 (5da689c313, 2019-01-14)"
   sodipodi:docname="logo.svg">
  <defs
     id="defs2" />
  <sodipodi:namedview
     id="base"
     pagecolor="#ffffff"
     bordercolor="#666666"
     borderopacity="1.0"
     inkscape:pageopacity="0.0"
     inkscape:pageshadow="2"
     inkscape:zoom="2.8"
     inkscape:cx="85.958676"
     inkscape:cy="-10.16038"
     inkscape:document-units="mm"
     inkscape:current-layer="g5150"
     showgrid="false"
     units="px"
     fit-margin-top="10"
     fit-margin-left="10"
     fit-margin-right="10"
     fit-margin-bottom="10"
     inkscape:snap-text-baseline="true"
     inkscape:pagecheckerboard="true"
     inkscape:showpageshadow="false"
     inkscape:window-width="1858"
     inkscape:window-height="1057"
     inkscape:window-x="54"
     inkscape:window-y="-8"
     inkscape:window-maximized="1" />
  <metadata
     id="metadata5">
    <rdf:RDF>
      <cc:Work
         rdf:about="">
        <dc:format>image/svg+xml</dc:format>
        <dc:type
           rdf:resource="http://purl.org/dc/dcmitype/StillImage" />
        <dc:title />
      </cc:Work>
    </rdf:RDF>
  </metadata>
  <g
     transform="translate(-13.762871,-5.4802726)"
     id="g4534"
     inkscape:groupmode="layer"
     inkscape:label="Text"
     style="display:none">
    <text
       id="text4532"
       y="16.366995"
       x="16.036171"
       style="font-style:normal;font-variant:normal;font-weight:normal;font-stretch:normal;font-size:10.58333302px;line-height:1.25;font-family:Roboto;-inkscape-font-specification:Roboto;letter-spacing:0px;word-spacing:0px;fill:#000000;fill-opacity:1;stroke:none;stroke-width:0.26458332"
       xml:space="preserve"><tspan
         style="font-style:normal;font-variant:normal;font-weight:normal;font-stretch:normal;font-size:11.28888893px;font-family:Raleway;-inkscape-font-specification:Raleway;letter-spacing:2.11666656px;fill:#ffffff;fill-opacity:1;stroke-width:0.26458332"
         y="16.366995"
         x="16.036171"
         id="tspan4530"
         sodipodi:role="line">asciidoclive</tspan></text>
  </g>
  <g
     transform="translate(-13.762871,-5.4802726)"
     id="g5150"
     inkscape:groupmode="layer"
     inkscape:label="Text copy shadow"
     style="display:inline">
    <g
       id="g5148"
       style="font-style:normal;font-variant:normal;font-weight:normal;font-stretch:normal;font-size:10.58333302px;line-height:1.25;font-family:Roboto;-inkscape-font-specification:Roboto;letter-spacing:0px;word-spacing:0px;fill:#000000;fill-opacity:0.13333333;stroke:none;stroke-width:0.26458332"
       aria-label="asciidoclive"
       transform="translate(0.52916663,0.52916663)">
      <path
         id="path5124"
         style="font-style:normal;font-variant:normal;font-weight:normal;font-stretch:normal;font-size:11.28888893px;font-family:Raleway;-inkscape-font-specification:Raleway;letter-spacing:2.11666656px;fill:#000000;fill-opacity:0.13333333;stroke-width:0.26458332"
         d="m 18.361682,16.479884 q -0.417689,0 -0.778933,-0.135467 -0.349956,-0.146755 -0.620889,-0.395111 -0.259645,-0.248356 -0.4064,-0.575733 -0.146756,-0.338667 -0.146756,-0.722489 0,-0.383822 0.180623,-0.7112 0.180622,-0.327378 0.508,-0.564445 0.327377,-0.237066 0.778933,-0.361244 0.451555,-0.135467 0.993422,-0.135467 0.451556,0 0.9144,0.07902 0.462845,0.07902 0.824089,0.225778 V 12.65295 q 0,-0.778933 -0.440267,-1.230488 -0.440266,-0.462845 -1.2192,-0.462845 -0.451555,0 -0.925689,0.180622 -0.474133,0.180623 -0.959555,0.519289 l -0.270933,-0.508 q 1.140177,-0.767644 2.212622,-0.767644 1.106311,0 1.738489,0.620889 0.632177,0.620889 0.632177,1.715911 v 2.652889 q 0,0.316089 0.282223,0.316089 v 0.677333 q -0.191911,0.03387 -0.293511,0.03387 -0.293512,0 -0.462845,-0.146756 -0.158044,-0.146756 -0.169333,-0.4064 l -0.02258,-0.462844 q -0.4064,0.530577 -1.027289,0.8128 -0.6096,0.282222 -1.3208,0.282222 z m 0.180622,-0.587022 q 0.598311,0 1.095023,-0.225778 0.508,-0.225778 0.767644,-0.598311 0.1016,-0.1016 0.146756,-0.214489 0.05644,-0.124178 0.05644,-0.225778 V 13.66895 q -0.383822,-0.146755 -0.801511,-0.225777 -0.4064,-0.07902 -0.835378,-0.07902 -0.8128,0 -1.3208,0.338667 -0.508,0.338667 -0.508,0.891822 0,0.270934 0.1016,0.508 0.112889,0.237067 0.293511,0.417689 0.191911,0.169334 0.451556,0.270934 0.259644,0.1016 0.553155,0.1016 z"
         inkscape:connector-curvature="0" />
      <path
         id="path5126"
         style="font-style:normal;font-variant:normal;font-weight:normal;font-stretch:normal;font-size:11.28888893px;font-family:Raleway;-inkscape-font-specification:Raleway;letter-spacing:2.11666656px;fill:#000000;fill-opacity:0.13333333;stroke-width:0.26458332"
         d="m 27.104045,16.479884 q -0.688622,0 -1.343378,-0.225778 -0.654755,-0.225778 -1.128889,-0.654756 l 0.349956,-0.519288 q 0.496711,0.4064 1.004711,0.6096 0.519289,0.2032 1.106311,0.2032 0.7112,0 1.128889,-0.282223 0.428978,-0.293511 0.428978,-0.824089 0,-0.248355 -0.112889,-0.4064 -0.112889,-0.169333 -0.338667,-0.293511 -0.214489,-0.124177 -0.553155,-0.214489 -0.327378,-0.1016 -0.767645,-0.2032 -0.508,-0.124177 -0.880533,-0.248355 Q 25.6252,13.296417 25.376845,13.138373 25.139778,12.980328 25.0156,12.75455 q -0.112888,-0.237066 -0.112888,-0.587022 0,-0.440266 0.169333,-0.778933 0.180622,-0.338667 0.474133,-0.553156 0.3048,-0.225777 0.699911,-0.338666 0.4064,-0.112889 0.857956,-0.112889 0.677333,0 1.230489,0.225778 0.553155,0.214488 0.891822,0.575733 l -0.372533,0.451555 q -0.327378,-0.338666 -0.801511,-0.508 -0.462845,-0.169333 -0.970845,-0.169333 -0.3048,0 -0.564444,0.06773 -0.259645,0.05645 -0.462845,0.191912 -0.191911,0.135466 -0.3048,0.349955 -0.112889,0.2032 -0.112889,0.485422 0,0.237067 0.07902,0.383823 0.07902,0.146755 0.259644,0.259644 0.180622,0.1016 0.451556,0.191911 0.282222,0.07902 0.677333,0.169333 0.564444,0.135467 0.993422,0.270934 0.428978,0.135466 0.7112,0.316089 0.293511,0.180622 0.440267,0.440266 0.146755,0.259645 0.146755,0.632178 0,0.8128 -0.620889,1.286933 -0.620888,0.474134 -1.670755,0.474134 z"
         inkscape:connector-curvature="0" />
      <path
         id="path5128"
         style="font-style:normal;font-variant:normal;font-weight:normal;font-stretch:normal;font-size:11.28888893px;font-family:Raleway;-inkscape-font-specification:Raleway;letter-spacing:2.11666656px;fill:#000000;fill-opacity:0.13333333;stroke-width:0.26458332"
         d="m 32.351438,13.409306 q 0,-0.620889 0.214489,-1.174044 0.214488,-0.553156 0.598311,-0.959556 0.395111,-0.417689 0.936977,-0.654756 0.541867,-0.237066 1.196623,-0.237066 0.835377,0 1.456266,0.383822 0.620889,0.372533 0.936978,1.016 l -0.745067,0.237067 q -0.248355,-0.451556 -0.699911,-0.699911 -0.440266,-0.259645 -0.982133,-0.259645 -0.451556,0 -0.846667,0.180622 -0.383822,0.180623 -0.677333,0.496711 -0.282222,0.3048 -0.451556,0.733778 -0.158044,0.428978 -0.158044,0.936978 0,0.496711 0.169333,0.936978 0.169334,0.440266 0.462845,0.767644 0.293511,0.316089 0.677333,0.508 0.395111,0.180622 0.835378,0.180622 0.282222,0 0.553155,-0.07902 0.282223,-0.07902 0.519289,-0.214489 0.237067,-0.146755 0.4064,-0.327377 0.169334,-0.180623 0.237067,-0.383823 l 0.756356,0.225778 q -0.124178,0.316089 -0.361245,0.587022 -0.237067,0.259645 -0.564444,0.462845 -0.316089,0.191911 -0.7112,0.293511 -0.383823,0.112889 -0.801511,0.112889 -0.643467,0 -1.185334,-0.237067 -0.541866,-0.248355 -0.936978,-0.666044 -0.395111,-0.428978 -0.620888,-0.982134 -0.214489,-0.553155 -0.214489,-1.185333 z"
         inkscape:connector-curvature="0" />
      <path
         id="path5130"
         style="font-style:normal;font-variant:normal;font-weight:normal;font-stretch:normal;font-size:11.28888893px;font-family:Raleway;-inkscape-font-specification:Raleway;letter-spacing:2.11666656px;fill:#000000;fill-opacity:0.13333333;stroke-width:0.26458332"
         d="m 41.070164,16.366995 v -5.881511 h 0.767645 v 5.881511 z m 0,-7.1120002 V 8.1261059 h 0.767645 v 1.1288889 z"
         inkscape:connector-curvature="0" />
      <path
         id="path5132"
         style="font-style:normal;font-variant:normal;font-weight:normal;font-stretch:normal;font-size:11.28888893px;font-family:Raleway;-inkscape-font-specification:Raleway;letter-spacing:2.11666656px;fill:#000000;fill-opacity:0.13333333;stroke-width:0.26458332"
         d="m 45.656275,16.366995 v -5.881511 h 0.767645 v 5.881511 z m 0,-7.1120002 V 8.1261059 h 0.767645 v 1.1288889 z"
         inkscape:connector-curvature="0" />
      <path
         id="path5134"
         style="font-style:normal;font-variant:normal;font-weight:normal;font-stretch:normal;font-size:11.28888893px;font-family:Raleway;-inkscape-font-specification:Raleway;letter-spacing:2.11666656px;fill:#000000;fill-opacity:0.13333333;stroke-width:0.26458332"
         d="m 52.658207,16.479884 q -0.6096,0 -1.128889,-0.248356 -0.519289,-0.259644 -0.891823,-0.677333 -0.372533,-0.417689 -0.587022,-0.959556 -0.2032,-0.553155 -0.2032,-1.151466 0,-0.620889 0.2032,-1.174045 0.2032,-0.564444 0.553156,-0.982133 0.361244,-0.417689 0.846666,-0.654756 0.496712,-0.248355 1.083734,-0.248355 0.745066,0 1.3208,0.395111 0.575733,0.383822 0.903111,0.936978 V 8.1261059 h 0.767644 v 7.2474671 q 0,0.316089 0.270934,0.316089 v 0.677333 q -0.169334,0.03387 -0.270934,0.03387 -0.270933,0 -0.474133,-0.169334 -0.2032,-0.180622 -0.2032,-0.428978 V 15.22682 q -0.349956,0.575733 -0.948267,0.9144 -0.598311,0.338667 -1.241777,0.338667 z M 52.82754,15.80255 q 0.282222,0 0.598311,-0.112888 0.327378,-0.112889 0.6096,-0.3048 0.282222,-0.2032 0.474133,-0.462845 0.2032,-0.270933 0.248356,-0.575733 v -1.817511 q -0.112889,-0.3048 -0.327378,-0.564445 -0.214489,-0.270933 -0.496711,-0.474133 -0.270933,-0.2032 -0.587022,-0.316089 -0.316089,-0.112889 -0.620889,-0.112889 -0.474133,0 -0.857956,0.2032 -0.383822,0.2032 -0.666044,0.541867 -0.270933,0.327378 -0.417689,0.756355 -0.146756,0.428978 -0.146756,0.880534 0,0.474133 0.169334,0.903111 0.169333,0.428978 0.462844,0.756355 0.293511,0.316089 0.688622,0.508 0.4064,0.191911 0.869245,0.191911 z"
         inkscape:connector-curvature="0" />
      <path
         id="path5136"
         style="font-style:normal;font-variant:normal;font-weight:normal;font-stretch:normal;font-size:11.28888893px;font-family:Raleway;-inkscape-font-specification:Raleway;letter-spacing:2.11666656px;fill:#000000;fill-opacity:0.13333333;stroke-width:0.26458332"
         d="m 61.876646,16.479884 q -0.643467,0 -1.174045,-0.237067 -0.530578,-0.248355 -0.925689,-0.666044 -0.383822,-0.417689 -0.598311,-0.970845 -0.214489,-0.553155 -0.214489,-1.162755 0,-0.620889 0.214489,-1.174045 0.225778,-0.553155 0.6096,-0.970844 0.395111,-0.417689 0.925689,-0.666045 0.530578,-0.248355 1.162756,-0.248355 0.632177,0 1.162755,0.248355 0.541867,0.248356 0.925689,0.666045 0.395111,0.417689 0.6096,0.970844 0.225778,0.553156 0.225778,1.174045 0,0.6096 -0.214489,1.162755 -0.214489,0.553156 -0.6096,0.970845 -0.383822,0.417689 -0.925689,0.666044 -0.530578,0.237067 -1.174044,0.237067 z m -2.1336,-3.025422 q 0,0.496711 0.169333,0.925688 0.169333,0.417689 0.451556,0.745067 0.293511,0.316089 0.677333,0.496711 0.395111,0.180622 0.835378,0.180622 0.440266,0 0.824089,-0.180622 0.395111,-0.191911 0.688622,-0.508 0.293511,-0.327378 0.462844,-0.756355 0.169334,-0.428978 0.169334,-0.925689 0,-0.485422 -0.169334,-0.9144 -0.169333,-0.440267 -0.462844,-0.756356 -0.293511,-0.327378 -0.688622,-0.508 -0.383823,-0.191911 -0.824089,-0.191911 -0.440267,0 -0.824089,0.191911 -0.383822,0.180622 -0.677334,0.508 -0.293511,0.327378 -0.462844,0.767645 -0.169333,0.428977 -0.169333,0.925689 z"
         inkscape:connector-curvature="0" />
      <path
         id="path5138"
         style="font-style:normal;font-variant:normal;font-weight:normal;font-stretch:normal;font-size:11.28888893px;font-family:Raleway;-inkscape-font-specification:Raleway;letter-spacing:2.11666656px;fill:#000000;fill-opacity:0.13333333;stroke-width:0.26458332"
         d="m 67.805604,13.409306 q 0,-0.620889 0.214489,-1.174044 0.214489,-0.553156 0.598311,-0.959556 0.395111,-0.417689 0.936978,-0.654756 0.541866,-0.237066 1.196622,-0.237066 0.835378,0 1.456267,0.383822 0.620889,0.372533 0.936978,1.016 l -0.745067,0.237067 q -0.248356,-0.451556 -0.699911,-0.699911 -0.440267,-0.259645 -0.982134,-0.259645 -0.451555,0 -0.846666,0.180622 -0.383823,0.180623 -0.677334,0.496711 -0.282222,0.3048 -0.451555,0.733778 -0.158045,0.428978 -0.158045,0.936978 0,0.496711 0.169334,0.936978 0.169333,0.440266 0.462844,0.767644 0.293511,0.316089 0.677333,0.508 0.395112,0.180622 0.835378,0.180622 0.282222,0 0.553156,-0.07902 0.282222,-0.07902 0.519289,-0.214489 0.237066,-0.146755 0.4064,-0.327377 0.169333,-0.180623 0.237066,-0.383823 l 0.756356,0.225778 q -0.124178,0.316089 -0.361244,0.587022 -0.237067,0.259645 -0.564445,0.462845 -0.316089,0.191911 -0.7112,0.293511 -0.383822,0.112889 -0.801511,0.112889 -0.643467,0 -1.185333,-0.237067 -0.541867,-0.248355 -0.936978,-0.666044 -0.395111,-0.428978 -0.620889,-0.982134 -0.214489,-0.553155 -0.214489,-1.185333 z"
         inkscape:connector-curvature="0" />
      <path
         id="path5140"
         style="font-style:normal;font-variant:normal;font-weight:normal;font-stretch:normal;font-size:11.28888893px;font-family:Raleway;-inkscape-font-specification:Raleway;letter-spacing:2.11666656px;fill:#000000;fill-opacity:0.13333333;stroke-width:0.26458332"
         d="m 76.558195,8.1261059 h 0.767645 v 6.9088001 q 0,0.327378 0.180622,0.519289 0.180622,0.180622 0.508,0.180622 0.124178,0 0.293511,-0.03387 0.169333,-0.03387 0.316089,-0.09031 l 0.135467,0.620889 q -0.214489,0.09031 -0.530578,0.146756 -0.3048,0.05644 -0.530578,0.05644 -0.530578,0 -0.835378,-0.293511 -0.3048,-0.3048 -0.3048,-0.846667 z"
         inkscape:connector-curvature="0" />
      <path
         id="path5142"
         style="font-style:normal;font-variant:normal;font-weight:normal;font-stretch:normal;font-size:11.28888893px;font-family:Raleway;-inkscape-font-specification:Raleway;letter-spacing:2.11666656px;fill:#000000;fill-opacity:0.13333333;stroke-width:0.26458332"
         d="m 81.705752,16.366995 v -5.881511 h 0.767644 v 5.881511 z m 0,-7.1120002 V 8.1261059 h 0.767644 v 1.1288889 z"
         inkscape:connector-curvature="0" />
      <path
         id="path5144"
         style="font-style:normal;font-variant:normal;font-weight:normal;font-stretch:normal;font-size:11.28888893px;font-family:Raleway;-inkscape-font-specification:Raleway;letter-spacing:2.11666656px;fill:#000000;fill-opacity:0.13333333;stroke-width:0.26458332"
         d="m 88.052931,16.366995 -2.393244,-5.881511 h 0.790222 l 2.020711,5.170311 2.032,-5.170311 h 0.745067 l -2.393244,5.881511 z"
         inkscape:connector-curvature="0" />
      <path
         id="path5146"
         style="font-style:normal;font-variant:normal;font-weight:normal;font-stretch:normal;font-size:11.28888893px;font-family:Raleway;-inkscape-font-specification:Raleway;letter-spacing:2.11666656px;fill:#000000;fill-opacity:0.13333333;stroke-width:0.26458332"
         d="m 96.769365,16.479884 q -0.643467,0 -1.185334,-0.237067 -0.530577,-0.248355 -0.925688,-0.666044 -0.395112,-0.428978 -0.620889,-0.982134 -0.214489,-0.553155 -0.214489,-1.185333 0,-0.620889 0.214489,-1.162756 0.225777,-0.553155 0.6096,-0.959555 0.395111,-0.417689 0.936977,-0.654756 0.541867,-0.248355 1.174045,-0.248355 0.643467,0 1.174044,0.248355 0.541867,0.237067 0.925689,0.654756 0.383822,0.417689 0.598311,0.959555 0.214489,0.541867 0.214489,1.151467 0,0.09031 0,0.180622 0,0.09031 -0.01129,0.124178 h -5.034844 q 0.03387,0.474133 0.214489,0.880533 0.191911,0.395112 0.485422,0.688623 0.293511,0.293511 0.666044,0.462844 0.383823,0.158045 0.8128,0.158045 0.282223,0 0.564445,-0.07902 0.282222,-0.07902 0.519289,-0.214489 0.237066,-0.135466 0.428978,-0.327377 0.191911,-0.2032 0.293511,-0.440267 l 0.666044,0.180622 q -0.135467,0.327378 -0.383822,0.598311 -0.248356,0.259645 -0.575733,0.462845 -0.327378,0.191911 -0.722489,0.293511 -0.395111,0.112889 -0.824089,0.112889 z m 2.167466,-3.364089 q -0.03387,-0.474133 -0.225777,-0.857956 -0.180623,-0.395111 -0.474134,-0.677333 -0.282222,-0.282222 -0.666044,-0.440267 -0.372533,-0.158044 -0.801511,-0.158044 -0.428978,0 -0.8128,0.158044 -0.383822,0.158045 -0.677334,0.440267 -0.282222,0.282222 -0.462844,0.677333 -0.169333,0.395111 -0.2032,0.857956 z"
         inkscape:connector-curvature="0" />
    </g>
  </g>
  <g
     style="display:inline"
     inkscape:label="Text copy"
     inkscape:groupmode="layer"
     id="g4565"
     transform="translate(-13.762871,-5.4802726)">
    <g
       aria-label="asciidoclive"
       style="font-style:normal;font-variant:normal;font-weight:normal;font-stretch:normal;font-size:10.58333302px;line-height:1.25;font-family:Roboto;-inkscape-font-specification:Roboto;letter-spacing:0px;word-spacing:0px;fill:#000000;fill-opacity:1;stroke:none;stroke-width:0.26458332"
       id="text4563">
      <path
         d="m 18.361682,16.479884 q -0.417689,0 -0.778933,-0.135467 -0.349956,-0.146755 -0.620889,-0.395111 -0.259645,-0.248356 -0.4064,-0.575733 -0.146756,-0.338667 -0.146756,-0.722489 0,-0.383822 0.180623,-0.7112 0.180622,-0.327378 0.508,-0.564445 0.327377,-0.237066 0.778933,-0.361244 0.451555,-0.135467 0.993422,-0.135467 0.451556,0 0.9144,0.07902 0.462845,0.07902 0.824089,0.225778 V 12.65295 q 0,-0.778933 -0.440267,-1.230488 -0.440266,-0.462845 -1.2192,-0.462845 -0.451555,0 -0.925689,0.180622 -0.474133,0.180623 -0.959555,0.519289 l -0.270933,-0.508 q 1.140177,-0.767644 2.212622,-0.767644 1.106311,0 1.738489,0.620889 0.632177,0.620889 0.632177,1.715911 v 2.652889 q 0,0.316089 0.282223,0.316089 v 0.677333 q -0.191911,0.03387 -0.293511,0.03387 -0.293512,0 -0.462845,-0.146756 -0.158044,-0.146756 -0.169333,-0.4064 l -0.02258,-0.462844 q -0.4064,0.530577 -1.027289,0.8128 -0.6096,0.282222 -1.3208,0.282222 z m 0.180622,-0.587022 q 0.598311,0 1.095023,-0.225778 0.508,-0.225778 0.767644,-0.598311 0.1016,-0.1016 0.146756,-0.214489 0.05644,-0.124178 0.05644,-0.225778 V 13.66895 q -0.383822,-0.146755 -0.801511,-0.225777 -0.4064,-0.07902 -0.835378,-0.07902 -0.8128,0 -1.3208,0.338667 -0.508,0.338667 -0.508,0.891822 0,0.270934 0.1016,0.508 0.112889,0.237067 0.293511,0.417689 0.191911,0.169334 0.451556,0.270934 0.259644,0.1016 0.553155,0.1016 z"
         style="font-style:normal;font-variant:normal;font-weight:normal;font-stretch:normal;font-size:11.28888893px;font-family:Raleway;-inkscape-font-specification:Raleway;letter-spacing:2.11666656px;fill:#ffffff;fill-opacity:1;stroke-width:0.26458332"
         id="path4567"
         inkscape:connector-curvature="0" />
      <path
         d="m 27.104045,16.479884 q -0.688622,0 -1.343378,-0.225778 -0.654755,-0.225778 -1.128889,-0.654756 l 0.349956,-0.519288 q 0.496711,0.4064 1.004711,0.6096 0.519289,0.2032 1.106311,0.2032 0.7112,0 1.128889,-0.282223 0.428978,-0.293511 0.428978,-0.824089 0,-0.248355 -0.112889,-0.4064 -0.112889,-0.169333 -0.338667,-0.293511 -0.214489,-0.124177 -0.553155,-0.214489 -0.327378,-0.1016 -0.767645,-0.2032 -0.508,-0.124177 -0.880533,-0.248355 Q 25.6252,13.296417 25.376845,13.138373 25.139778,12.980328 25.0156,12.75455 q -0.112888,-0.237066 -0.112888,-0.587022 0,-0.440266 0.169333,-0.778933 0.180622,-0.338667 0.474133,-0.553156 0.3048,-0.225777 0.699911,-0.338666 0.4064,-0.112889 0.857956,-0.112889 0.677333,0 1.230489,0.225778 0.553155,0.214488 0.891822,0.575733 l -0.372533,0.451555 q -0.327378,-0.338666 -0.801511,-0.508 -0.462845,-0.169333 -0.970845,-0.169333 -0.3048,0 -0.564444,0.06773 -0.259645,0.05645 -0.462845,0.191912 -0.191911,0.135466 -0.3048,0.349955 -0.112889,0.2032 -0.112889,0.485422 0,0.237067 0.07902,0.383823 0.07902,0.146755 0.259644,0.259644 0.180622,0.1016 0.451556,0.191911 0.282222,0.07902 0.677333,0.169333 0.564444,0.135467 0.993422,0.270934 0.428978,0.135466 0.7112,0.316089 0.293511,0.180622 0.440267,0.440266 0.146755,0.259645 0.146755,0.632178 0,0.8128 -0.620889,1.286933 -0.620888,0.474134 -1.670755,0.474134 z"
         style="font-style:normal;font-variant:normal;font-weight:normal;font-stretch:normal;font-size:11.28888893px;font-family:Raleway;-inkscape-font-specification:Raleway;letter-spacing:2.11666656px;fill:#ffffff;fill-opacity:1;stroke-width:0.26458332"
         id="path4569"
         inkscape:connector-curvature="0" />
      <path
         d="m 32.351438,13.409306 q 0,-0.620889 0.214489,-1.174044 0.214488,-0.553156 0.598311,-0.959556 0.395111,-0.417689 0.936977,-0.654756 0.541867,-0.237066 1.196623,-0.237066 0.835377,0 1.456266,0.383822 0.620889,0.372533 0.936978,1.016 l -0.745067,0.237067 q -0.248355,-0.451556 -0.699911,-0.699911 -0.440266,-0.259645 -0.982133,-0.259645 -0.451556,0 -0.846667,0.180622 -0.383822,0.180623 -0.677333,0.496711 -0.282222,0.3048 -0.451556,0.733778 -0.158044,0.428978 -0.158044,0.936978 0,0.496711 0.169333,0.936978 0.169334,0.440266 0.462845,0.767644 0.293511,0.316089 0.677333,0.508 0.395111,0.180622 0.835378,0.180622 0.282222,0 0.553155,-0.07902 0.282223,-0.07902 0.519289,-0.214489 0.237067,-0.146755 0.4064,-0.327377 0.169334,-0.180623 0.237067,-0.383823 l 0.756356,0.225778 q -0.124178,0.316089 -0.361245,0.587022 -0.237067,0.259645 -0.564444,0.462845 -0.316089,0.191911 -0.7112,0.293511 -0.383823,0.112889 -0.801511,0.112889 -0.643467,0 -1.185334,-0.237067 -0.541866,-0.248355 -0.936978,-0.666044 -0.395111,-0.428978 -0.620888,-0.982134 -0.214489,-0.553155 -0.214489,-1.185333 z"
         style="font-style:normal;font-variant:normal;font-weight:normal;font-stretch:normal;font-size:11.28888893px;font-family:Raleway;-inkscape-font-specification:Raleway;letter-spacing:2.11666656px;fill:#ffffff;fill-opacity:1;stroke-width:0.26458332"
         id="path4571"
         inkscape:connector-curvature="0" />
      <path
         d="m 41.070164,16.366995 v -5.881511 h 0.767645 v 5.881511 z m 0,-7.1120002 V 8.1261059 h 0.767645 v 1.1288889 z"
         style="font-style:normal;font-variant:normal;font-weight:normal;font-stretch:normal;font-size:11.28888893px;font-family:Raleway;-inkscape-font-specification:Raleway;letter-spacing:2.11666656px;fill:#ffffff;fill-opacity:1;stroke-width:0.26458332"
         id="path4573"
         inkscape:connector-curvature="0" />
      <path
         d="m 45.656275,16.366995 v -5.881511 h 0.767645 v 5.881511 z m 0,-7.1120002 V 8.1261059 h 0.767645 v 1.1288889 z"
         style="font-style:normal;font-variant:normal;font-weight:normal;font-stretch:normal;font-size:11.28888893px;font-family:Raleway;-inkscape-font-specification:Raleway;letter-spacing:2.11666656px;fill:#ffffff;fill-opacity:1;stroke-width:0.26458332"
         id="path4575"
         inkscape:connector-curvature="0" />
      <path
         d="m 52.658207,16.479884 q -0.6096,0 -1.128889,-0.248356 -0.519289,-0.259644 -0.891823,-0.677333 -0.372533,-0.417689 -0.587022,-0.959556 -0.2032,-0.553155 -0.2032,-1.151466 0,-0.620889 0.2032,-1.174045 0.2032,-0.564444 0.553156,-0.982133 0.361244,-0.417689 0.846666,-0.654756 0.496712,-0.248355 1.083734,-0.248355 0.745066,0 1.3208,0.395111 0.575733,0.383822 0.903111,0.936978 V 8.1261059 h 0.767644 v 7.2474671 q 0,0.316089 0.270934,0.316089 v 0.677333 q -0.169334,0.03387 -0.270934,0.03387 -0.270933,0 -0.474133,-0.169334 -0.2032,-0.180622 -0.2032,-0.428978 V 15.22682 q -0.349956,0.575733 -0.948267,0.9144 -0.598311,0.338667 -1.241777,0.338667 z M 52.82754,15.80255 q 0.282222,0 0.598311,-0.112888 0.327378,-0.112889 0.6096,-0.3048 0.282222,-0.2032 0.474133,-0.462845 0.2032,-0.270933 0.248356,-0.575733 v -1.817511 q -0.112889,-0.3048 -0.327378,-0.564445 -0.214489,-0.270933 -0.496711,-0.474133 -0.270933,-0.2032 -0.587022,-0.316089 -0.316089,-0.112889 -0.620889,-0.112889 -0.474133,0 -0.857956,0.2032 -0.383822,0.2032 -0.666044,0.541867 -0.270933,0.327378 -0.417689,0.756355 -0.146756,0.428978 -0.146756,0.880534 0,0.474133 0.169334,0.903111 0.169333,0.428978 0.462844,0.756355 0.293511,0.316089 0.688622,0.508 0.4064,0.191911 0.869245,0.191911 z"
         style="font-style:normal;font-variant:normal;font-weight:normal;font-stretch:normal;font-size:11.28888893px;font-family:Raleway;-inkscape-font-specification:Raleway;letter-spacing:2.11666656px;fill:#ffffff;fill-opacity:1;stroke-width:0.26458332"
         id="path4577"
         inkscape:connector-curvature="0" />
      <path
         d="m 61.876646,16.479884 q -0.643467,0 -1.174045,-0.237067 -0.530578,-0.248355 -0.925689,-0.666044 -0.383822,-0.417689 -0.598311,-0.970845 -0.214489,-0.553155 -0.214489,-1.162755 0,-0.620889 0.214489,-1.174045 0.225778,-0.553155 0.6096,-0.970844 0.395111,-0.417689 0.925689,-0.666045 0.530578,-0.248355 1.162756,-0.248355 0.632177,0 1.162755,0.248355 0.541867,0.248356 0.925689,0.666045 0.395111,0.417689 0.6096,0.970844 0.225778,0.553156 0.225778,1.174045 0,0.6096 -0.214489,1.162755 -0.214489,0.553156 -0.6096,0.970845 -0.383822,0.417689 -0.925689,0.666044 -0.530578,0.237067 -1.174044,0.237067 z m -2.1336,-3.025422 q 0,0.496711 0.169333,0.925688 0.169333,0.417689 0.451556,0.745067 0.293511,0.316089 0.677333,0.496711 0.395111,0.180622 0.835378,0.180622 0.440266,0 0.824089,-0.180622 0.395111,-0.191911 0.688622,-0.508 0.293511,-0.327378 0.462844,-0.756355 0.169334,-0.428978 0.169334,-0.925689 0,-0.485422 -0.169334,-0.9144 -0.169333,-0.440267 -0.462844,-0.756356 -0.293511,-0.327378 -0.688622,-0.508 -0.383823,-0.191911 -0.824089,-0.191911 -0.440267,0 -0.824089,0.191911 -0.383822,0.180622 -0.677334,0.508 -0.293511,0.327378 -0.462844,0.767645 -0.169333,0.428977 -0.169333,0.925689 z"
         style="font-style:normal;font-variant:normal;font-weight:normal;font-stretch:normal;font-size:11.28888893px;font-family:Raleway;-inkscape-font-specification:Raleway;letter-spacing:2.11666656px;fill:#ffffff;fill-opacity:1;stroke-width:0.26458332"
         id="path4579"
         inkscape:connector-curvature="0" />
      <path
         d="m 67.805604,13.409306 q 0,-0.620889 0.214489,-1.174044 0.214489,-0.553156 0.598311,-0.959556 0.395111,-0.417689 0.936978,-0.654756 0.541866,-0.237066 1.196622,-0.237066 0.835378,0 1.456267,0.383822 0.620889,0.372533 0.936978,1.016 l -0.745067,0.237067 q -0.248356,-0.451556 -0.699911,-0.699911 -0.440267,-0.259645 -0.982134,-0.259645 -0.451555,0 -0.846666,0.180622 -0.383823,0.180623 -0.677334,0.496711 -0.282222,0.3048 -0.451555,0.733778 -0.158045,0.428978 -0.158045,0.936978 0,0.496711 0.169334,0.936978 0.169333,0.440266 0.462844,0.767644 0.293511,0.316089 0.677333,0.508 0.395112,0.180622 0.835378,0.180622 0.282222,0 0.553156,-0.07902 0.282222,-0.07902 0.519289,-0.214489 0.237066,-0.146755 0.4064,-0.327377 0.169333,-0.180623 0.237066,-0.383823 l 0.756356,0.225778 q -0.124178,0.316089 -0.361244,0.587022 -0.237067,0.259645 -0.564445,0.462845 -0.316089,0.191911 -0.7112,0.293511 -0.383822,0.112889 -0.801511,0.112889 -0.643467,0 -1.185333,-0.237067 -0.541867,-0.248355 -0.936978,-0.666044 -0.395111,-0.428978 -0.620889,-0.982134 -0.214489,-0.553155 -0.214489,-1.185333 z"
         style="font-style:normal;font-variant:normal;font-weight:normal;font-stretch:normal;font-size:11.28888893px;font-family:Raleway;-inkscape-font-specification:Raleway;letter-spacing:2.11666656px;fill:#ffffff;fill-opacity:1;stroke-width:0.26458332"
         id="path4581"
         inkscape:connector-curvature="0" />
      <path
         d="m 76.558195,8.1261059 h 0.767645 v 6.9088001 q 0,0.327378 0.180622,0.519289 0.180622,0.180622 0.508,0.180622 0.124178,0 0.293511,-0.03387 0.169333,-0.03387 0.316089,-0.09031 l 0.135467,0.620889 q -0.214489,0.09031 -0.530578,0.146756 -0.3048,0.05644 -0.530578,0.05644 -0.530578,0 -0.835378,-0.293511 -0.3048,-0.3048 -0.3048,-0.846667 z"
         style="font-style:normal;font-variant:normal;font-weight:normal;font-stretch:normal;font-size:11.28888893px;font-family:Raleway;-inkscape-font-specification:Raleway;letter-spacing:2.11666656px;fill:#ffffff;fill-opacity:1;stroke-width:0.26458332"
         id="path4583"
         inkscape:connector-curvature="0" />
      <path
         d="m 81.705752,16.366995 v -5.881511 h 0.767644 v 5.881511 z m 0,-7.1120002 V 8.1261059 h 0.767644 v 1.1288889 z"
         style="font-style:normal;font-variant:normal;font-weight:normal;font-stretch:normal;font-size:11.28888893px;font-family:Raleway;-inkscape-font-specification:Raleway;letter-spacing:2.11666656px;fill:#ffffff;fill-opacity:1;stroke-width:0.26458332"
         id="path4585"
         inkscape:connector-curvature="0" />
      <path
         d="m 88.052931,16.366995 -2.393244,-5.881511 h 0.790222 l 2.020711,5.170311 2.032,-5.170311 h 0.745067 l -2.393244,5.881511 z"
         style="font-style:normal;font-variant:normal;font-weight:normal;font-stretch:normal;font-size:11.28888893px;font-family:Raleway;-inkscape-font-specification:Raleway;letter-spacing:2.11666656px;fill:#ffffff;fill-opacity:1;stroke-width:0.26458332"
         id="path4587"
         inkscape:connector-curvature="0" />
      <path
         d="m 96.769365,16.479884 q -0.643467,0 -1.185334,-0.237067 -0.530577,-0.248355 -0.925688,-0.666044 -0.395112,-0.428978 -0.620889,-0.982134 -0.214489,-0.553155 -0.214489,-1.185333 0,-0.620889 0.214489,-1.162756 0.225777,-0.553155 0.6096,-0.959555 0.395111,-0.417689 0.936977,-0.654756 0.541867,-0.248355 1.174045,-0.248355 0.643467,0 1.174044,0.248355 0.541867,0.237067 0.925689,0.654756 0.383822,0.417689 0.598311,0.959555 0.214489,0.541867 0.214489,1.151467 0,0.09031 0,0.180622 0,0.09031 -0.01129,0.124178 h -5.034844 q 0.03387,0.474133 0.214489,0.880533 0.191911,0.395112 0.485422,0.688623 0.293511,0.293511 0.666044,0.462844 0.383823,0.158045 0.8128,0.158045 0.282223,0 0.564445,-0.07902 0.282222,-0.07902 0.519289,-0.214489 0.237066,-0.135466 0.428978,-0.327377 0.191911,-0.2032 0.293511,-0.440267 l 0.666044,0.180622 q -0.135467,0.327378 -0.383822,0.598311 -0.248356,0.259645 -0.575733,0.462845 -0.327378,0.191911 -0.722489,0.293511 -0.395111,0.112889 -0.824089,0.112889 z m 2.167466,-3.364089 q -0.03387,-0.474133 -0.225777,-0.857956 -0.180623,-0.395111 -0.474134,-0.677333 -0.282222,-0.282222 -0.666044,-0.440267 -0.372533,-0.158044 -0.801511,-0.158044 -0.428978,0 -0.8128,0.158044 -0.383822,0.158045 -0.677334,0.440267 -0.282222,0.282222 -0.462844,0.677333 -0.169333,0.395111 -0.2032,0.857956 z"
         style="font-style:normal;font-variant:normal;font-weight:normal;font-stretch:normal;font-size:11.28888893px;font-family:Raleway;-inkscape-font-specification:Raleway;letter-spacing:2.11666656px;fill:#ffffff;fill-opacity:1;stroke-width:0.26458332"
         id="path4589"
         inkscape:connector-curvature="0" />
    </g>
  </g>
</svg>
